# xmcd CD database file
#
# Track frame offsets:
#	150
#	21216
#	34488
#	51513
#	67258
#	86092
#	102553
#	116115
#	138748
#	155823
#	172613
#	192093
#	208306
#	226849
#	243707
#	260486
#	277791
#	295171
#
# Disc length: 4142 seconds
#
# Revision: 6
# Processed by: cddbd v1.5.2PL0 Copyright (c) Steve Scherf et al.
# Submitted via: CDex 1.51
#
DISCID=1a102c12
DTITLE=Various Artist - MRH-115
DYEAR=2014
DGENRE=Blues
TTITLE0=Route 94 Ft Jess Glynne - My Love
TTITLE1=Dvbbs and Borgeous Ft Tinnie Tempah - Tsunami (Jump)
TTITLE2=Little Mix - Word Up
TTITLE3=Sam Smith - Money On My Mind
TTITLE4=Kylie Minogue - Into The Blue
TTITLE5=Robbie Williams - Shine My Shoes
TTITLE6=Pixie Lott - Nasty
TTITLE7=Coldplay - Magic
TTITLE8=Sam Bailey - Compass
TTITLE9=Pitbull Ft G R L - Wild Wild Love
TTITLE10=Shakira - Empire
TTITLE11=Tiesto - Red Lights
TTITLE12=Foxes - Let Go For Tonight
TTITLE13=Jason Derulo - Stupid Love
TTITLE14=Paloma Faith - Can't Rely On You
TTITLE15=Bastille - Flaws
TTITLE16=Idina Menzel - Let It Go
TTITLE17=American Authors - Best Day Of My Life
EXTD=YEAR: 2014
EXTT0=
EXTT1=
EXTT2=
EXTT3=
EXTT4=
EXTT5=
EXTT6=
EXTT7=
EXTT8=
EXTT9=
EXTT10=
EXTT11=
EXTT12=
EXTT13=
EXTT14=
EXTT15=
EXTT16=
EXTT17=
PLAYORDER=
